# xmcd CD database file
#
# Track frame offsets:
#	150
#	19951
#	40992
#	61840
#	63742
#	81147
#	102147
#	123200
#	147156
#	168878
#	169951
#	183248
#	205739
#
# Disc length: 2826 seconds
#
# Revision: 0
# Processed by: cddbd v1.5.1PL0 Copyright (c) Steve Scherf et al.
# Submitted via: CDex 1.51
#
DISCID=ad0b080d
DTITLE=Enrique Mono Villegas - Vol. 2
DYEAR=1964
DGENRE=Jazz
TTITLE0=Pequeño Hotel
TTITLE1=Debe Ser La Primavera
TTITLE2=Luna Azul
TTITLE3=Palabras Del Mono
TTITLE4=La Canción Eres Tú
TTITLE5=Los Ayeres (Yesterdays)
TTITLE6=Suave Romance
TTITLE7=Orquídeas Azules
TTITLE8=No Portarse Mal
TTITLE9=Palabras Del Mono
TTITLE10=Rosa Madreselva
TTITLE11=Trampeándose
TTITLE12=Palabras Del Mono
EXTD=YEAR: 1964
EXTT0=
EXTT1=
EXTT2=
EXTT3=
EXTT4=
EXTT5=
EXTT6=
EXTT7=
EXTT8=
EXTT9=
EXTT10=
EXTT11=
EXTT12=
PLAYORDER=
